<?xml version="1.0" standalone="no"?>
<!DOCTYPE svg PUBLIC "-//W3C//DTD SVG 20010904//EN"
 "http://www.w3.org/TR/2001/REC-SVG-20010904/DTD/svg10.dtd">
<svg version="1.0" xmlns="http://www.w3.org/2000/svg"
 width="417.000000pt" height="417.000000pt" viewBox="0 0 417.000000 417.000000"
 preserveAspectRatio="xMidYMid meet">
<metadata>
Created by potrace 1.14, written by Peter Selinger 2001-2017
</metadata>
<g transform="translate(0.000000,417.000000) scale(0.100000,-0.100000)"
fill="#000000" stroke="none">
<path d="M2030 3666 c0 -2 21 -53 47 -113 42 -97 46 -115 44 -176 l-2 -68 43
3 43 3 3 60 c3 49 13 78 58 164 30 57 54 107 54 111 0 4 -15 10 -32 13 -32 5
-68 -14 -68 -35 0 -5 -9 -28 -20 -50 -11 -23 -20 -49 -20 -57 -1 -13 -3 -12
-11 2 -6 11 -12 24 -13 30 -1 7 -10 36 -20 65 l-18 52 -44 0 c-24 0 -44 -2
-44 -4z"/>
<path d="M1732 3639 c-42 -9 -43 -9 -48 -61 -2 -24 -6 -54 -9 -68 -2 -14 -7
-52 -11 -85 -3 -33 -10 -82 -14 -108 -4 -26 -3 -50 1 -53 5 -3 24 -2 44 2 31
6 35 10 35 38 0 45 11 56 63 62 46 6 47 5 64 -31 17 -35 19 -36 58 -29 22 3
42 8 43 9 9 8 -164 328 -178 330 -8 1 -30 -2 -48 -6z m65 -201 c-6 -4 -22 -8
-35 -8 -21 0 -22 3 -18 48 2 26 5 56 6 67 1 13 12 -1 30 -40 22 -44 26 -61 17
-67z"/>
<path d="M2505 3538 c-112 -183 -143 -238 -137 -242 4 -2 23 -7 43 -11 34 -6
37 -5 53 30 11 23 23 35 31 31 8 -3 30 -8 49 -12 20 -3 37 -11 37 -18 1 -6 2
-26 4 -44 3 -39 1 -38 48 -46 l39 -7 -7 173 c-4 95 -8 179 -8 186 0 6 -18 17
-39 23 -22 5 -45 12 -51 14 -7 3 -34 -32 -62 -77z m83 -73 c0 -60 -2 -65 -22
-65 -48 0 -51 14 -17 74 18 31 34 56 36 56 1 0 3 -29 3 -65z"/>
<path d="M1379 3544 c-38 -16 -37 -15 -56 -123 -9 -55 -19 -53 -46 8 l-26 60
-33 -13 c-18 -8 -34 -19 -36 -25 -4 -12 113 -298 128 -314 7 -8 80 17 80 26 0
3 -9 24 -19 47 -15 33 -17 49 -9 71 l10 29 41 -34 c82 -66 91 -69 131 -52 42
17 45 30 14 47 -19 10 -135 96 -160 118 -4 3 2 42 12 86 11 44 19 81 20 83 0
5 -17 0 -51 -14z"/>
<path d="M935 3316 c-26 -23 -28 -27 -16 -49 7 -13 27 -40 44 -60 30 -34 46
-53 74 -88 7 -8 -42 11 -107 44 l-120 58 -35 -27 c-23 -17 -32 -31 -27 -38 5
-6 51 -67 102 -136 51 -69 96 -128 99 -132 3 -4 21 4 39 18 l32 26 -22 31
c-13 18 -47 60 -76 95 l-53 63 98 -50 c146 -74 144 -74 182 -44 31 24 31 26
16 50 -9 13 -23 32 -30 41 -8 9 -38 49 -67 88 -29 38 -64 85 -79 102 l-25 33
-29 -25z"/>
<path d="M3302 3186 c-122 -42 -177 -183 -111 -281 27 -41 113 -88 144 -79 11
3 42 33 69 66 l49 60 -44 38 c-52 46 -63 48 -85 15 -16 -24 -16 -27 2 -40 15
-11 17 -18 8 -32 -19 -31 -51 -28 -73 8 -59 97 88 225 164 143 14 -15 25 -34
25 -42 0 -11 8 -13 32 -8 17 3 34 8 36 11 9 9 -9 55 -34 85 -46 54 -120 77
-182 56z"/>
<path d="M1979 3035 c-3 -2 -25 -6 -49 -9 -25 -3 -56 -8 -70 -11 -14 -3 -38
-8 -54 -10 -16 -3 -37 -10 -47 -16 -11 -5 -19 -7 -19 -5 0 20 -304 -119 -322
-147 -4 -7 -8 -8 -8 -4 0 7 -53 -29 -86 -58 -7 -5 -31 -26 -55 -45 -41 -33
-78 -70 -148 -149 -65 -73 -193 -288 -206 -346 -1 -5 -7 -23 -14 -40 -7 -16
-12 -31 -12 -32 0 -2 -9 -33 -20 -70 -11 -38 -23 -95 -27 -128 -8 -72 -7 -354
3 -410 9 -56 43 -178 62 -223 8 -20 15 -39 16 -42 0 -6 64 -138 80 -166 15
-25 70 -107 77 -114 3 -3 25 -30 50 -60 135 -167 359 -316 575 -385 44 -14 87
-25 96 -25 8 0 19 -3 23 -7 3 -4 19 -8 34 -9 81 -8 110 -11 118 -16 12 -6 230
-1 279 7 22 3 55 7 73 8 17 1 32 4 32 8 0 3 6 6 13 7 32 2 139 33 152 44 5 4
15 8 22 8 14 0 104 40 113 49 3 3 11 7 17 8 18 4 157 94 161 104 2 5 8 9 13 9
21 0 177 150 239 230 87 112 148 222 189 340 13 36 26 72 29 80 3 8 7 28 9 45
3 16 8 34 12 40 4 5 8 24 9 40 1 17 6 54 11 84 13 79 6 304 -12 393 -21 103
-71 246 -115 333 -20 39 -39 72 -42 75 -4 3 -9 12 -12 20 -11 31 -105 147
-178 221 -76 77 -190 169 -209 169 -6 0 -11 3 -11 8 0 4 -10 12 -23 18 -12 6
-42 22 -67 36 -53 29 -186 82 -250 99 -25 7 -47 13 -50 14 -7 2 -69 14 -110
20 -43 8 -286 16 -291 10z m246 -69 c86 -7 119 -14 215 -43 111 -33 303 -125
340 -163 3 -3 21 -16 40 -30 37 -25 96 -77 137 -120 54 -56 113 -125 113 -133
0 -4 8 -16 18 -27 41 -45 158 -293 166 -356 2 -11 5 -25 9 -30 3 -5 8 -28 11
-50 4 -22 9 -51 12 -64 10 -42 11 -277 2 -327 -4 -26 -10 -64 -12 -83 -4 -40
-33 -147 -43 -164 -4 -6 -8 -16 -9 -23 -1 -6 -24 -58 -52 -115 -42 -86 -113
-197 -157 -244 -5 -6 -26 -28 -45 -50 -125 -138 -326 -263 -528 -328 -162 -52
-405 -64 -577 -29 -16 3 -39 7 -50 9 -11 1 -45 11 -75 22 -30 10 -62 21 -70
23 -31 8 -250 123 -250 131 0 4 -5 8 -11 8 -6 0 -16 6 -24 13 -7 6 -30 26 -51
42 -110 87 -230 232 -302 365 -37 69 -89 192 -97 230 -1 8 -8 33 -13 55 -51
194 -43 446 20 643 12 37 22 70 22 74 1 3 4 10 9 14 4 4 7 16 7 26 0 10 5 18
10 18 6 0 10 9 10 20 0 11 4 20 9 20 5 0 11 10 15 23 5 22 91 156 131 206 72
89 227 224 309 270 185 104 330 153 491 166 44 4 81 8 83 10 3 3 98 -2 187 -9z"/>
<path d="M1636 2601 c-4 -6 -5 -11 -2 -11 3 0 -2 -17 -11 -37 -8 -21 -15 -39
-14 -40 0 -2 -1 -8 -4 -15 -2 -7 -25 -83 -51 -168 -25 -85 -50 -162 -54 -170
-7 -13 -36 -15 -179 -14 l-171 0 0 -141 0 -141 103 1 104 0 0 61 c1 70 6 84
31 79 9 -2 22 -4 29 -4 8 -1 10 -21 9 -61 -3 -65 8 -82 45 -73 15 4 19 -1 20
-23 1 -36 1 -586 0 -596 -1 -5 -20 -8 -44 -8 -42 0 -42 0 -90 -78 -26 -43 -47
-81 -47 -84 0 -3 137 -6 304 -6 l304 0 -10 24 c-6 13 -15 24 -20 24 -4 0 -7 3
-6 8 1 4 -13 31 -31 59 -25 40 -39 53 -57 53 l-24 0 3 312 2 312 28 1 c38 3
41 8 39 74 -1 39 3 60 11 63 7 2 274 3 595 3 320 0 582 2 582 6 0 4 -34 42
-75 85 l-76 79 -475 0 c-417 1 -477 -1 -487 -15 -9 -11 -30 -15 -74 -15 -61 0
-75 5 -79 28 -1 7 -14 57 -29 112 -14 55 -28 107 -30 115 -13 58 -49 187 -55
199 -5 10 -9 10 -14 2z m33 -271 c11 -41 18 -76 17 -78 -2 -1 -20 14 -40 34
-39 39 -40 47 -15 111 6 15 13 24 15 18 2 -5 12 -44 23 -85z m-11 -142 c46
-41 48 -40 -45 -42 l-48 -1 3 34 c1 18 7 42 13 54 10 17 13 18 23 6 6 -8 30
-31 54 -51z m436 -96 c17 -16 16 -17 -30 -22 -27 -3 -69 -3 -94 -1 l-44 3 26
23 c21 18 34 21 74 18 27 -3 57 -12 68 -21z m197 2 c17 -21 4 -28 -47 -25 -28
1 -52 9 -64 21 -18 18 -18 19 13 22 48 5 85 -2 98 -18z m190 0 c7 -8 9 -17 5
-21 -12 -13 -90 -3 -109 14 -19 18 -19 18 14 23 44 7 76 1 90 -16z m195 1 c22
-22 17 -25 -39 -25 -41 0 -55 4 -64 19 -10 15 -10 20 0 24 22 7 90 -4 103 -18z
m200 -6 c17 -18 16 -19 -38 -19 -41 0 -59 5 -71 18 -23 25 -17 28 41 24 34 -3
56 -10 68 -23z m-1108 -82 l3 -67 -28 -1 c-15 0 -62 -1 -103 -2 l-75 -2 0 60
c0 33 3 65 7 70 4 6 46 10 100 10 l93 -1 3 -67z m-68 -156 c4 -1 4 -23 1 -89
-1 -18 -24 -4 -84 51 l-49 43 64 -1 c34 -1 65 -3 68 -4z m-48 -153 c49 -46 53
-57 49 -126 -1 -23 -1 -23 -29 5 -15 15 -46 44 -67 63 -35 31 -40 41 -39 75 1
22 2 44 2 49 2 10 18 -2 84 -66z m-14 -178 c61 -58 66 -69 62 -120 -3 -33 -5
-34 -30 -13 -88 74 -102 93 -105 144 -1 27 0 49 4 49 3 0 34 -27 69 -60z m34
-232 c16 -15 28 -32 28 -38 0 -6 -28 -10 -64 -10 l-64 0 -4 54 c-5 88 -2 93
40 55 20 -19 49 -46 64 -61z"/>
<path d="M1995 1842 c-3 -3 -5 -90 -5 -194 l0 -189 28 5 c15 2 30 5 33 5 8 1
9 371 1 372 -39 5 -53 5 -57 1z"/>
<path d="M2411 1741 c-5 -13 -7 -204 -2 -268 1 -14 39 -17 56 -5 7 4 11 61 11
144 l0 136 -28 4 c-20 3 -31 0 -37 -11z"/>
<path d="M2124 1722 c-23 -3 -39 -38 -22 -48 11 -7 215 -12 241 -6 13 3 17 12
15 30 -3 25 -3 25 -108 26 -58 1 -115 0 -126 -2z"/>
<path d="M2116 1622 c-12 -3 -16 -11 -14 -30 l3 -27 125 0 125 0 3 28 c2 15 0
27 -5 28 -26 3 -222 3 -237 1z"/>
<path d="M2831 1611 c-8 -5 -11 -30 -10 -78 l2 -70 33 -1 32 -1 4 69 c2 39 0
71 -4 71 -20 3 -24 5 -33 11 -6 4 -17 3 -24 -1z"/>
<path d="M2167 1522 c-68 -3 -68 -3 -65 -30 l3 -27 125 0 125 0 3 28 c3 24 0
27 -30 28 -18 0 -46 1 -63 2 -16 1 -61 1 -98 -1z"/>
<path d="M2554 1522 c-34 -3 -52 -33 -30 -51 7 -6 63 -9 132 -8 l119 2 3 28
c3 24 0 27 -30 28 -132 3 -167 4 -194 1z"/>
<path d="M2022 1422 l-32 -3 2 -172 3 -172 448 -2 447 -1 1 36 c1 102 -2 307
-6 310 -4 4 -818 8 -863 4z m278 -81 l36 -1 -1 -91 c0 -85 -2 -92 -22 -100
-13 -5 -25 -4 -28 2 -4 5 -11 7 -16 3 -9 -5 -75 -8 -126 -5 -10 1 -13 27 -13
95 l0 95 38 3 c20 2 51 2 67 1 17 -1 46 -2 65 -2z m503 0 c15 -1 17 -12 17
-95 0 -98 -7 -113 -42 -95 -9 5 -19 6 -21 2 -3 -5 -36 -7 -74 -5 l-69 3 0 94
c0 112 -18 103 189 96z m-262 -11 c0 -5 1 -44 1 -85 0 -101 1 -98 -22 -92 -11
3 -20 2 -20 -2 0 -4 -21 -4 -47 -1 l-47 5 1 85 c1 47 2 88 2 93 1 11 131 8
132 -3z"/>
<path d="M550 2973 c-11 -14 -19 -30 -18 -34 4 -11 251 -229 259 -229 4 0 19
14 33 31 l26 30 -38 32 c-20 18 -39 34 -42 37 -43 43 -181 160 -188 160 -6 0
-20 -12 -32 -27z"/>
<path d="M3560 2799 c-69 -50 -131 -94 -139 -98 -11 -7 -9 -15 11 -45 l25 -36
53 36 c41 28 54 33 61 23 13 -20 12 -24 -21 -90 l-31 -60 27 -34 c14 -19 28
-35 30 -35 2 0 18 31 36 69 31 68 31 69 62 60 43 -12 109 21 130 66 14 29 15
39 3 72 -17 49 -94 163 -110 162 -7 0 -68 -41 -137 -90z m164 -58 c18 -30 18
-33 1 -51 -25 -27 -51 -25 -80 6 -14 15 -25 30 -25 33 0 10 64 50 75 47 5 -1
18 -17 29 -35z"/>
<path d="M365 2730 c-17 -33 -19 -50 -5 -50 5 0 29 -12 54 -27 l44 -27 -25
-48 c-14 -26 -29 -48 -34 -48 -4 0 -31 14 -59 30 -28 17 -53 30 -55 30 -3 0
-13 -17 -24 -38 l-20 -39 37 -19 c20 -11 87 -48 147 -84 61 -36 115 -65 120
-65 9 -1 44 51 45 66 0 3 -21 18 -47 32 -81 45 -78 39 -48 91 15 25 31 46 36
46 9 0 50 -21 59 -30 11 -11 62 -30 69 -25 10 6 35 64 30 69 -23 17 -291 166
-298 166 -6 0 -17 -13 -26 -30z"/>
<path d="M3844 2431 c-115 -46 -161 -77 -175 -119 -14 -42 -4 -97 24 -139 44
-64 102 -69 244 -18 132 48 128 45 113 89 -6 20 -13 36 -14 36 -2 0 -46 -16
-97 -35 -127 -47 -155 -52 -179 -30 -24 21 -26 58 -5 78 8 9 63 34 122 57 60
23 110 44 111 45 2 2 -1 20 -8 39 -7 23 -18 36 -28 35 -9 -1 -58 -17 -108 -38z"/>
<path d="M140 2230 c-6 -4 -16 -26 -23 -51 l-13 -44 155 -102 c163 -107 163
-107 175 -46 7 29 4 33 -28 48 -20 10 -36 18 -36 19 0 1 7 25 15 53 15 50 15
50 56 49 41 -1 42 0 55 42 l12 43 -179 -2 c-99 -2 -184 -6 -189 -9z m186 -73
c1 -1 -3 -17 -8 -35 l-9 -34 -27 18 c-15 10 -39 24 -54 32 -48 23 -40 30 30
25 37 -3 67 -6 68 -6z"/>
<path d="M4110 1977 c-3 -3 -39 -8 -80 -11 -41 -4 -88 -9 -105 -11 -16 -3 -52
-7 -80 -10 -69 -7 -84 -13 -80 -33 2 -9 4 -28 4 -40 1 -23 3 -24 60 -17 l58 7
7 -37 c17 -89 68 -138 135 -130 75 10 106 51 103 139 -2 69 -14 150 -22 143z
m-49 -117 c1 -11 2 -26 3 -32 5 -29 -15 -48 -48 -48 -25 0 -35 6 -44 25 -26
56 -17 68 56 73 26 2 32 -1 33 -18z"/>
<path d="M68 1833 c-6 -16 -11 -52 -11 -81 -1 -44 4 -57 26 -79 18 -18 36 -26
60 -26 52 0 62 7 107 72 42 63 71 77 88 44 11 -24 8 -50 -11 -95 l-15 -36 29
-4 c33 -5 44 4 54 45 6 21 12 27 26 24 12 -3 20 2 24 14 12 37 30 21 26 -23
-2 -12 5 -18 18 -18 12 0 22 6 22 13 1 6 3 22 4 34 3 34 -22 63 -54 63 -16 0
-31 -7 -35 -15 -3 -8 -10 -15 -16 -15 -6 0 -9 4 -6 8 9 15 -27 73 -54 87 -55
28 -107 0 -156 -82 -43 -74 -99 -46 -70 36 9 28 10 43 3 50 -20 20 -47 12 -59
-16z"/>
</g>
</svg>
